<svg width="41" height="27" viewBox="0 0 41 27" fill="none" xmlns="http://www.w3.org/2000/svg">
<path d="M38.2296 25.3448H2.77041C2.36171 25.3448 2.03041 25.0135 2.03041 24.6048V2.74C2.03041 2.3313 2.36171 2 2.77041 2H38.2296C38.6383 2 38.9696 2.3313 38.9696 2.74V24.6048C38.9696 25.0135 38.6383 25.3448 38.2296 25.3448Z" stroke="black" stroke-width="2.46334" stroke-miterlimit="10"/>
<path d="M38.26 9.21701H2.74C2.3313 9.21701 2 8.88571 2 8.47701V6.40501C2 5.99631 2.3313 5.66501 2.74 5.66501H38.26C38.6687 5.66501 39 5.99631 39 6.40501V8.47701C39 8.88571 38.6687 9.21701 38.26 9.21701Z" stroke="black" stroke-width="2.46334" stroke-miterlimit="10"/>
<path d="M9.39883 21.649H7.95798C6.72625 21.649 5.71844 20.6412 5.71844 19.4095V17.9686C5.71844 16.7369 6.72625 15.729 7.95798 15.729H9.39883C10.6306 15.729 11.6384 16.7368 11.6384 17.9686V19.4095C11.6384 20.6412 10.6306 21.649 9.39883 21.649Z" stroke="black" stroke-width="2.46334" stroke-miterlimit="10" stroke-linecap="round" stroke-linejoin="round"/>
</svg>
