<svg width="34" height="34" viewBox="0 0 34 34" fill="none" xmlns="http://www.w3.org/2000/svg">
<path d="M27.7813 1.06697C29.2039 -0.355655 31.5103 -0.355655 32.933 1.06697C34.3557 2.48959 34.3557 4.79612 32.933 6.21874L22.2591 16.8927C22.1998 16.9519 22.1998 17.0481 22.2591 17.1073L32.933 27.7813C34.3557 29.2039 34.3557 31.5103 32.933 32.933C31.5103 34.3557 29.2039 34.3557 27.7813 32.933L17.1073 22.2591C17.0481 22.1998 16.9519 22.1998 16.8927 22.2591L6.21874 32.933C4.79612 34.3557 2.48959 34.3557 1.06697 32.933C-0.355655 31.5103 -0.355655 29.2039 1.06697 27.7813L11.7409 17.1073C11.8002 17.0481 11.8002 16.9519 11.7409 16.8927L1.06697 6.21874C-0.355655 4.79612 -0.355655 2.48959 1.06697 1.06697C2.48959 -0.355655 4.79612 -0.355655 6.21874 1.06697L16.8927 11.7409C16.9519 11.8002 17.0481 11.8002 17.1073 11.7409L27.7813 1.06697Z" fill="#212121"/>
</svg>
