<svg width="41" height="36" viewBox="0 0 41 36" fill="none" xmlns="http://www.w3.org/2000/svg">
<path d="M39 34C39 34 39 32.6087 38.1591 29.8261C37.1408 26.4552 34.7955 24.2609 29.75 24.2609C25.5455 24.2609 17.1364 24.2609 11.25 24.2609C6.20455 24.2609 3.85917 26.4552 2.84091 29.8261C2 32.6087 2 34 2 34" stroke="black" stroke-width="2.5452" stroke-linecap="round" stroke-linejoin="round"/>
<path d="M12.0909 10.3478C12.0909 12.9389 12.5442 15.7799 13.7727 17.3043C15.3379 19.2473 17.9921 20.087 20.5 20.087C23.1032 20.087 25.6604 19.2473 27.2273 17.3043C28.455 15.7799 28.9091 12.9389 28.9091 10.3478C28.9091 8.40452 28.0682 2 20.5 2C12.9318 2 12.0909 7.10901 12.0909 10.3478Z" stroke="black" stroke-width="2.5452" stroke-linejoin="round"/>
</svg>
